<svg width="139" height="170" xmlns="http://www.w3.org/2000/svg" xmlns:xlink="http://www.w3.org/1999/xlink" xml:space="preserve" overflow="hidden"><defs><clipPath id="clip0"><rect x="570" y="275" width="139" height="170"/></clipPath></defs><g clip-path="url(#clip0)" transform="translate(-570 -275)"><path d="M570 286 709 286 709 426 570 426Z" fill="#FFFFFF"/><path d="M570.5 286.5 708.5 286.5 708.5 425.5 570.5 425.5Z" stroke="#707070" fill="none"/><path d="M639 295 704 295 704 357 639 357Z" fill="#FFFFFF"/><path d="M639.5 295.5 703.5 295.5 703.5 356.5 639.5 356.5Z" stroke="#707070" fill="none"/><text font-family="Poppins,Poppins_MSFontService,sans-serif" font-weight="400" font-size="84" transform="translate(589 390)">1<tspan font-size="77" x="57" y="-34">+</tspan></text><path d="M639 360 704 360 704 422 639 422Z" fill="#FFFFFF"/><path d="M639.5 360.5 703.5 360.5 703.5 421.5 639.5 421.5Z" stroke="#707070" fill="none"/><text font-family="Poppins,Poppins_MSFontService,sans-serif" font-weight="400" font-size="77" transform="translate(651 418)">-</text></g></svg>