<svg width="24" height="28" xmlns="http://www.w3.org/2000/svg" xmlns:xlink="http://www.w3.org/1999/xlink" xml:space="preserve" overflow="hidden"><defs><clipPath id="clip0"><rect x="628" y="346" width="24" height="28"/></clipPath></defs><g clip-path="url(#clip0)" transform="translate(-628 -346)"><path d="M652 359C652 365.627 646.627 371 640 371 633.373 371 628 365.627 628 359 628 352.373 633.373 347 640 347 646.627 347 652 352.373 652 359Z" fill="#EF5656"/><path d="M651.5 359C651.5 365.351 646.351 370.5 640 370.5 633.649 370.5 628.5 365.351 628.5 359 628.5 352.649 633.649 347.5 640 347.5 646.351 347.5 651.5 352.649 651.5 359Z" stroke="#707070" fill="none"/><text font-family="Poppins,Poppins_MSFontService,sans-serif" font-weight="700" font-size="20" transform="translate(636 367)">1</text></g></svg>