<svg width="61" height="55" xmlns="http://www.w3.org/2000/svg" xmlns:xlink="http://www.w3.org/1999/xlink" xml:space="preserve" overflow="hidden"><defs><clipPath id="clip0"><rect x="609" y="332" width="61" height="55"/></clipPath></defs><g clip-path="url(#clip0)" transform="translate(-609 -332)"><path d="M670 359.5C670 374.688 656.345 387 639.5 387 622.655 387 609 374.688 609 359.5 609 344.312 622.655 332 639.5 332 656.345 332 670 344.312 670 359.5Z" fill="#070707"/><path d="M669.5 359.5C669.5 374.412 656.069 386.5 639.5 386.5 622.931 386.5 609.5 374.412 609.5 359.5 609.5 344.588 622.931 332.5 639.5 332.5 656.069 332.5 669.5 344.588 669.5 359.5Z" stroke="#707070" fill="none"/><path d="M657 360C657 367.18 649.389 373 640 373 630.611 373 623 367.18 623 360 623 352.82 630.611 347 640 347 649.389 347 657 352.82 657 360Z" fill="#FFFFFF"/><path d="M656.5 360C656.5 366.904 649.113 372.5 640 372.5 630.887 372.5 623.5 366.904 623.5 360 623.5 353.096 630.887 347.5 640 347.5 649.113 347.5 656.5 353.096 656.5 360Z" stroke="#707070" fill="none"/></g></svg>