<?xml version="1.0" standalone="no"?>
<!DOCTYPE svg PUBLIC "-//W3C//DTD SVG 20010904//EN"
 "http://www.w3.org/TR/2001/REC-SVG-20010904/DTD/svg10.dtd">
<svg version="1.0" xmlns="http://www.w3.org/2000/svg"
 width="287.000000pt" height="334.000000pt" viewBox="0 0 287.000000 334.000000"
 preserveAspectRatio="xMidYMid meet">

<g transform="translate(0.000000,334.000000) scale(0.100000,-0.100000)"
fill="#000000" stroke="none">
<path d="M170 1835 l0 -1255 1255 0 1255 0 0 1255 0 1255 -1255 0 -1255 0 0
-1255z m1288 1238 c-21 -2 -38 -8 -38 -14 0 -5 -4 -9 -8 -9 -5 0 -9 7 -9 15 0
11 11 15 46 13 44 -1 44 -2 9 -5z m752 -49 c0 -37 -4 -53 -11 -48 -16 9 -99
11 -99 2 0 -4 -13 -8 -30 -8 -16 0 -30 5 -30 11 0 8 -12 10 -34 6 -26 -4 -34
-2 -30 7 6 17 -118 31 -144 17 -11 -6 -33 -6 -58 -1 -24 6 -40 5 -42 0 -5 -15
-22 -12 -22 3 0 15 -63 45 -95 45 -11 1 -32 4 -47 8 -18 4 -28 2 -28 -5 0 -16
-27 -13 -34 4 -5 13 38 15 349 15 l355 0 0 -56z m-313 -40 c-3 -3 -12 -4 -19
-1 -8 3 -5 6 6 6 11 1 17 -2 13 -5z m289 -295 c4 -8 9 -7 15 2 5 9 9 -20 9
-71 0 -48 -4 -79 -9 -72 -4 7 -25 13 -47 12 -53 -1 -105 10 -129 26 -11 8 -29
14 -41 14 -25 0 -39 26 -21 37 7 4 19 6 28 5 8 -2 21 8 27 22 8 18 21 26 44
28 74 8 118 7 124 -3z m-256 -34 c0 -8 -7 -15 -15 -15 -13 0 -14 3 -3 15 16
18 18 18 18 0z m-44 -32 c-11 -11 -19 6 -11 24 8 17 8 17 12 0 3 -10 2 -21 -1
-24z m-522 -629 c10 -4 16 -18 16 -35 0 -32 -19 -37 -58 -16 l-22 13 20 22
c23 25 22 24 44 16z m-77 -66 c-3 -8 -6 -5 -6 6 -1 11 2 17 5 13 3 -3 4 -12 1
-19z m66 -15 c-7 -2 -13 -12 -13 -20 0 -13 -3 -13 -15 -3 -13 11 -13 15 -3 21
7 5 20 8 28 8 10 0 11 -2 3 -6z m-211 -23 c13 -20 48 -19 76 3 6 5 12 7 12 4
0 -3 3 -13 7 -22 5 -14 2 -16 -15 -10 -13 3 -22 2 -22 -4 0 -5 9 -13 20 -16
11 -3 20 -11 20 -16 0 -5 6 -9 13 -9 9 0 12 -29 14 -108 0 -59 -1 -99 -4 -89
-6 21 -22 22 -29 2 -4 -8 -15 -15 -26 -15 -11 0 -16 -4 -13 -11 4 -6 13 -8 21
-5 20 8 17 -18 -6 -61 -11 -22 -20 -57 -20 -82 0 -35 -3 -42 -12 -33 -9 9 -9
23 0 62 10 42 9 57 -4 90 -9 22 -20 40 -25 40 -5 0 -9 8 -9 18 0 10 -5 23 -12
30 -9 9 -7 12 11 12 12 0 20 4 16 9 -3 6 13 8 40 6 39 -4 45 -2 45 15 0 10 -4
22 -10 25 -5 3 -10 17 -10 30 0 13 -11 32 -26 44 -46 36 -93 41 -64 6 16 -19
6 -19 -24 0 -21 14 -24 14 -30 -1 -4 -10 -12 -14 -22 -10 -11 4 -15 0 -14 -17
4 -39 0 -47 -16 -40 -11 4 -12 9 -5 16 15 15 14 27 -3 27 -8 0 -16 -6 -19 -14
-9 -23 15 -76 35 -76 21 0 35 -39 17 -50 -14 -9 -39 -2 -39 11 0 5 -7 9 -15 9
-14 0 -19 14 -18 48 1 6 -3 12 -7 12 -5 0 -6 9 -3 20 6 21 -6 27 -22 11 -6 -5
-25 -12 -44 -16 -29 -6 -33 -5 -28 9 4 11 1 16 -12 16 -10 0 -24 7 -31 15 -9
11 -9 15 -1 15 7 0 9 5 6 10 -14 22 7 11 49 -27 17 -15 88 -5 83 11 -5 17 -70
46 -89 40 -10 -3 -18 -1 -18 5 0 6 16 11 36 11 29 0 34 3 26 13 -19 22 1 33
68 35 36 2 68 6 72 10 16 16 68 11 80 -8z m156 -38 c6 -18 -15 -14 -22 4 -4
10 -1 14 6 12 6 -2 14 -10 16 -16z m-479 -104 c1 -5 -3 -8 -8 -8 -12 0 -22 30
-14 43 6 10 20 -13 22 -35z m21 -58 c0 -5 -5 -10 -11 -10 -5 0 -7 5 -4 10 3 6
8 10 11 10 2 0 4 -4 4 -10z m270 -10 c0 -5 -4 -10 -10 -10 -5 0 -10 5 -10 10
0 6 5 10 10 10 6 0 10 -4 10 -10z m-183 -32 c-3 -8 -6 -5 -6 6 -1 11 2 17 5
13 3 -3 4 -12 1 -19z m-57 -64 c0 -8 -4 -14 -10 -14 -5 0 -10 9 -10 21 0 11 5
17 10 14 6 -3 10 -13 10 -21z m227 20 c-3 -3 -12 -4 -19 -1 -8 3 -5 6 6 6 11
1 17 -2 13 -5z m-133 -14 c14 -5 26 -14 26 -20 0 -18 43 -60 62 -60 22 0 23
-13 1 -47 -16 -24 -16 -26 2 -39 10 -8 25 -14 32 -14 9 0 13 -10 11 -27 -2
-15 2 -28 8 -28 12 0 84 -61 84 -71 0 -3 -11 1 -25 10 -13 9 -31 16 -39 16 -9
0 -31 15 -49 34 -26 25 -32 37 -23 46 8 8 7 13 -4 20 -8 5 -18 7 -22 4 -4 -3
-5 9 -2 26 6 29 -7 42 -21 20 -11 -17 -33 -11 -28 8 2 10 -3 31 -11 47 -9 17
-16 36 -16 43 0 6 -4 12 -10 12 -5 0 -10 7 -10 15 0 18 1 18 34 5z m66 -206
c0 -8 -4 -12 -10 -9 -5 3 -10 10 -10 16 0 5 5 9 10 9 6 0 10 -7 10 -16z m884
-20 c9 -3 16 -12 16 -19 0 -10 -7 -11 -31 -5 -18 5 -36 7 -40 4 -5 -3 -14 -2
-20 2 -26 16 39 32 75 18z m-674 -104 c0 -5 -2 -10 -4 -10 -3 0 -8 5 -11 10
-3 6 -1 10 4 10 6 0 11 -4 11 -10z"/>
<path d="M950 1844 c0 -25 18 -32 37 -13 7 7 19 8 30 4 27 -12 43 -14 43 -6 0
11 -51 33 -82 36 -24 2 -28 -1 -28 -21z"/>
<path d="M1680 390 c0 -47 3 -60 15 -60 12 0 15 13 15 60 0 47 -3 60 -15 60
-12 0 -15 -13 -15 -60z"/>
<path d="M840 385 c0 -42 3 -55 15 -55 9 0 15 9 15 25 0 16 6 25 15 25 8 0 15
5 15 10 0 6 -7 10 -15 10 -8 0 -15 5 -15 10 0 6 9 10 20 10 11 0 20 5 20 10 0
6 -16 10 -35 10 l-35 0 0 -55z"/>
<path d="M1240 385 c0 -30 5 -55 10 -55 6 0 10 25 10 55 0 30 -4 55 -10 55 -5
0 -10 -25 -10 -55z"/>
<path d="M932 408 c-15 -15 -15 -51 0 -66 17 -17 53 -15 69 4 12 15 10 16 -19
10 -21 -5 -32 -4 -32 3 0 6 14 11 30 11 18 0 30 5 30 13 0 19 -21 37 -45 37
-12 0 -26 -5 -33 -12z m48 -18 c0 -5 -7 -10 -15 -10 -8 0 -15 5 -15 10 0 6 7
10 15 10 8 0 15 -4 15 -10z"/>
<path d="M1024 406 c-3 -8 -4 -27 -2 -43 3 -25 7 -28 46 -31 l42 -3 0 45 0 46
-40 0 c-26 0 -43 -5 -46 -14z m64 -29 c4 -20 -25 -34 -40 -19 -15 15 -1 44 19
40 10 -2 19 -11 21 -21z"/>
<path d="M1130 375 c0 -33 4 -45 15 -45 10 0 15 11 15 35 0 19 5 35 10 35 6 0
10 5 10 10 0 6 -11 10 -25 10 -23 0 -25 -4 -25 -45z"/>
<path d="M1280 376 c0 -52 17 -63 22 -13 2 20 8 32 18 32 10 0 16 -12 18 -32
5 -49 24 -40 20 10 -3 41 -4 42 -40 45 l-38 3 0 -45z"/>
<path d="M1381 398 c-12 -34 2 -63 33 -66 33 -4 56 13 56 42 0 30 -18 46 -52
46 -21 0 -31 -6 -37 -22z m61 -10 c8 -21 -2 -38 -23 -38 -19 0 -27 29 -12 43
11 11 31 8 35 -5z"/>
<path d="M1484 406 c-3 -8 -4 -27 -2 -43 3 -25 7 -28 37 -28 19 0 36 6 38 12
3 9 -4 11 -27 6 -29 -5 -31 -4 -28 18 2 19 8 24 31 22 40 -3 29 21 -11 25 -21
2 -34 -2 -38 -12z"/>
<path d="M1582 378 c3 -42 4 -43 41 -46 l37 -3 0 45 c0 25 -4 46 -10 46 -5 0
-10 -16 -10 -35 0 -28 -4 -35 -20 -35 -16 0 -20 7 -20 35 0 19 -5 35 -11 35
-6 0 -9 -17 -7 -42z"/>
<path d="M1720 394 c0 -44 17 -64 55 -64 35 0 35 0 35 45 0 52 -17 61 -22 13
-2 -22 -9 -34 -20 -36 -15 -3 -18 4 -18 32 0 25 -4 36 -15 36 -9 0 -15 -10
-15 -26z"/>
<path d="M1830 375 c0 -52 17 -61 22 -12 2 20 8 32 18 32 10 0 16 -12 18 -32
4 -42 20 -43 24 -1 2 22 9 34 21 36 14 3 17 -4 17 -32 0 -25 4 -36 15 -36 17
0 19 27 6 63 -9 23 -15 25 -75 26 l-66 0 0 -44z"/>
<path d="M1087 215 c-21 -15 -22 -51 -2 -59 8 -3 15 -17 15 -32 0 -22 -2 -25
-15 -14 -8 7 -15 8 -15 4 0 -5 8 -14 19 -21 15 -10 22 -8 40 8 26 25 26 35 1
51 -11 7 -20 24 -20 37 0 20 2 21 15 11 8 -7 15 -8 15 -4 0 5 -8 14 -18 20
-14 9 -22 9 -35 -1z m13 -32 c0 -20 -3 -24 -11 -16 -7 7 -9 19 -6 27 10 24 17
19 17 -11z m30 -58 c0 -8 -4 -17 -10 -20 -6 -4 -10 5 -10 20 0 15 4 24 10 20
6 -3 10 -12 10 -20z"/>
<path d="M1513 217 c26 -22 22 -57 -7 -57 -28 0 -42 26 -25 46 8 9 8 14 1 14
-14 0 -24 -33 -16 -54 4 -10 18 -16 40 -16 32 0 33 -1 24 -25 -5 -14 -7 -25
-5 -25 3 0 10 12 16 27 13 36 2 81 -24 94 -20 9 -20 9 -4 -4z"/>
<path d="M1635 210 c21 -23 13 -50 -15 -50 -26 0 -36 25 -19 47 12 14 12 16
-1 11 -9 -3 -15 -17 -15 -34 0 -25 4 -29 33 -32 23 -2 32 -8 32 -22 0 -22 -28
-34 -46 -19 -9 7 -14 8 -14 1 0 -16 30 -23 51 -12 24 14 27 91 3 114 -22 23
-30 20 -9 -4z"/>
<path d="M1213 213 c42 -5 43 -11 6 -85 -11 -21 -16 -38 -11 -38 4 0 13 12 19
28 6 15 18 44 27 65 l16 37 -47 -2 c-45 -1 -45 -2 -10 -5z"/>
<path d="M1299 193 c-19 -52 11 -109 51 -95 22 7 30 23 30 59 0 49 -9 63 -41
63 -23 0 -32 -6 -40 -27z m66 -33 c0 -41 -2 -45 -25 -45 -21 0 -26 5 -28 33
-5 47 4 64 30 60 20 -3 23 -9 23 -48z"/>
<path d="M1470 116 c0 -3 9 -10 20 -16 11 -6 20 -8 20 -6 0 3 -9 10 -20 16
-11 6 -20 8 -20 6z"/>
<path d="M1415 100 c3 -5 8 -10 11 -10 2 0 4 5 4 10 0 6 -5 10 -11 10 -5 0 -7
-4 -4 -10z"/>
</g>
</svg>
